HIERARCHY
ROOT Hip
{
  OFFSET 0.0 0.0 0.0
  CHANNELS 6 Xposition Yposition Zposition Xrotation Yrotation Zrotation
  JOINT LowerSpine
  {
    OFFSET 0.0 0.061367 -0.03653
    CHANNELS 3 Xrotation Yrotation Zrotation
    JOINT MiddleSpine
    {
      OFFSET 0.0 0.056002 0.002633
      CHANNELS 3 Xrotation Yrotation Zrotation
      JOINT Chest
      {
        OFFSET 0.0 0.069296 -0.013882
        CHANNELS 3 Xrotation Yrotation Zrotation
        JOINT Neck
        {
          OFFSET 0.0 0.156156 -0.002923
          CHANNELS 3 Xrotation Yrotation Zrotation
          JOINT Head
          {
            OFFSET 0.0 0.088183 0.023986
            CHANNELS 3 Xrotation Yrotation Zrotation
            End Site
            {
              OFFSET 1e-06 0.123215 0.003678
            }
          }
        }
        JOINT LClavicle
        {
          OFFSET 0.014189 0.150698 0.046467
          CHANNELS 3 Xrotation Yrotation Zrotation
          JOINT LShoulder
          {
            OFFSET 0.082893 0.021616 -0.034976
            CHANNELS 3 Xrotation Yrotation Zrotation
            JOINT LForearm
            {
              OFFSET 0.195645 -0.000695 -0.001695
              CHANNELS 3 Xrotation Yrotation Zrotation
              JOINT LHand
              {
                OFFSET 0.163209 0.000474 -0.000977
                CHANNELS 3 Xrotation Yrotation Zrotation
                End Site
                {
                  OFFSET 0.0 0.006864 0.0
                }
              }
            }
          }
        }
        JOINT RClavicle
        {
          OFFSET -0.014189 0.150698 0.046467
          CHANNELS 3 Xrotation Yrotation Zrotation
          JOINT RShoulder
          {
            OFFSET -0.082908 0.021619 -0.034982
            CHANNELS 3 Xrotation Yrotation Zrotation
            JOINT RForearm
            {
              OFFSET -0.195645 -0.000695 -0.001695
              CHANNELS 3 Xrotation Yrotation Zrotation
              JOINT RHand
              {
                OFFSET -0.163209 0.000474 -0.000977
                CHANNELS 3 Xrotation Yrotation Zrotation
                End Site
                {
                  OFFSET 0.0 0.006864 0.0
                }
              }
            }
          }
        }
      }
    }
  }
  JOINT RThigh
  {
    OFFSET -0.072558 0.02774 -0.005953
    CHANNELS 3 Xrotation Yrotation Zrotation
    JOINT RShin
    {
      OFFSET -0.005253 -0.285537 0.0
      CHANNELS 3 Xrotation Yrotation Zrotation
      JOINT RFoot
      {
        OFFSET 0.0 -0.28038 0.0
        CHANNELS 3 Xrotation Yrotation Zrotation
        JOINT RToe
        {
          OFFSET 0.0 -0.030816 0.064441
          CHANNELS 3 Xrotation Yrotation Zrotation
          End Site
          {
            OFFSET 0.0 0.0 0.043231
          }
        }
      }
    }
  }
  JOINT LThigh
  {
    OFFSET 0.072557 0.027741 -0.005953
    CHANNELS 3 Xrotation Yrotation Zrotation
    JOINT LShin
    {
      OFFSET 0.005253 -0.285539 0.0
      CHANNELS 3 Xrotation Yrotation Zrotation
      JOINT LFoot
      {
        OFFSET 0.0 -0.28038 0.0
        CHANNELS 3 Xrotation Yrotation Zrotation
        JOINT LToe
        {
          OFFSET 0.0 -0.030816 0.064441
          CHANNELS 3 Xrotation Yrotation Zrotation
          End Site
          {
            OFFSET 0.0 0.0 0.043231
          }
        }
      }
    }
  }
}
MOTION
Frames: 15
Frame Time: 0.03333333333333333
0.172289 0.554489 1.356049 17.828285 -3.05464 26.857046 -13.027855 16.999657 -18.244844 2.032403 -2.632827 -28.495924 -11.767776 -25.143333 12.635822 -1.398628 -27.836895 -8.469699 -8.572611 28.089922 3.347909 -12.134391 27.819546 -11.09177 20.595102 -13.32343 -30.063211 -13.278166 -36.043682 -33.590717 -13.133626 -18.691477 16.909466 20.206829 2.813179 33.650307 13.327001 17.029968 40.239189 -9.499052 25.595776 26.114782 24.501451 7.930082 12.93611 -40.921268 -5.24255 -24.501175 16.164074 14.932837 18.662416 -6.356613 -6.440993 27.235384 6.1858 -23.564817 -16.066931 -8.189988 13.025724 -31.187767 2.123613 25.029245 12.776609 9.153821 5.61339 -24.602055 -13.937861 24.514803 12.953959 
0.170609 0.554649 1.379325 17.96603 -1.937417 26.346884 -14.063956 17.016518 -17.824326 1.858031 -3.232176 -28.720665 -11.044681 -26.250589 11.787543 -1.503171 -28.048479 -8.778663 -8.842733 28.288864 2.95157 -11.217695 28.625998 -11.948831 19.422943 -13.0209 -28.222162 -16.768154 -40.241714 -36.412685 -13.000875 -18.725664 17.25281 20.514111 0.842847 34.281204 13.431472 15.503217 40.484074 -9.573664 25.947992 25.985907 24.720146 8.203964 12.811803 -41.099129 -6.549579 -23.319084 13.374023 15.089879 18.134853 -4.341568 -5.853384 27.890646 7.312994 -23.443808 -15.862712 -5.113643 14.097483 -31.233677 2.45302 26.046169 12.228528 10.309042 6.070749 -24.40313 -13.914132 24.866436 12.887568 
0.168205 0.554378 1.399605 18.469139 -1.311694 26.202595 -14.760714 17.241302 -17.350115 1.662569 -3.782923 -28.915934 -11.243097 -26.813618 11.033323 -0.969741 -28.198416 -8.829142 -8.956192 28.495014 2.726961 -10.230049 29.27565 -12.771162 18.624376 -12.574448 -27.259689 -19.392126 -43.067181 -38.521206 -12.871117 -18.786179 17.599066 20.91143 -0.801539 34.555431 13.751716 14.525625 40.415363 -9.871981 26.482994 26.11812 24.883602 8.500381 12.768307 -41.073761 -7.239178 -22.494696 11.325327 15.660483 17.590786 -3.339457 -5.734612 28.17592 7.944007 -23.462252 -15.771947 -3.55039 15.034293 -31.01116 2.927122 26.970545 11.952316 11.339117 6.270951 -24.203423 -14.022918 25.10828 12.935197 
0.165535 0.553735 1.417789 18.723339 -1.007344 25.864609 -15.372045 17.402088 -16.791872 1.713996 -3.968482 -29.074203 -11.489753 -27.02491 10.580725 -0.872929 -28.202667 -8.934518 -9.02989 28.581558 2.688593 -9.166111 29.742424 -13.554261 17.921856 -12.225309 -26.851486 -21.180222 -44.774246 -39.851543 -12.784095 -18.795179 17.812658 21.241348 -2.144359 34.840771 13.894627 14.236917 40.252113 -9.943289 26.984201 26.306475 24.92886 8.656469 12.793996 -40.087776 -7.919669 -21.758812 9.59221 16.032528 17.015316 -2.790278 -5.654607 28.259747 8.220609 -23.505053 -15.692995 -2.551875 15.579767 -30.489405 3.583315 27.564186 11.677467 12.450992 6.440393 -23.955555 -14.081968 25.209974 13.01782 
0.161366 0.552614 1.434893 18.826139 -0.570447 25.591793 -15.920435 17.415785 -16.248301 1.950455 -3.937213 -29.088612 -11.844796 -26.952669 10.557697 -1.31225 -28.087618 -9.282186 -9.018157 28.595243 2.693136 -8.164527 30.123423 -14.129081 17.253283 -11.912441 -27.132887 -21.626148 -45.28545 -40.175968 -12.845454 -18.747231 17.851776 21.411362 -3.268651 35.212517 14.018292 14.572147 39.848389 -9.528713 27.27179 26.555271 24.91581 8.680971 12.848362 -38.451694 -8.771542 -21.267191 8.365638 15.974332 16.584911 -2.732542 -5.624344 28.184967 8.227938 -23.528957 -15.672699 -2.198559 15.77228 -29.727289 4.809591 27.671869 11.473728 13.775948 6.698473 -23.710115 -14.15182 25.206982 13.066688 
0.157151 0.551503 1.451617 18.246788 -0.325629 25.106981 -16.221058 17.371174 -15.754062 2.389134 -3.563446 -28.908455 -11.720837 -26.461233 11.08562 -1.888982 -27.849075 -9.626613 -8.956615 28.479342 2.757839 -7.452058 30.240452 -14.647956 16.760502 -11.858492 -27.934071 -20.84071 -44.484329 -39.430988 -12.923154 -18.648762 17.713978 21.402918 -3.913842 35.417477 14.273254 15.542652 39.376614 -8.873184 27.921373 26.958557 24.837755 8.529988 12.857168 -35.908463 -10.025473 -21.080259 7.429398 15.54157 16.359362 -3.00215 -5.266962 28.114819 8.118135 -23.452902 -15.630648 -1.67625 15.79213 -28.650167 6.424423 27.27039 11.213271 15.06564 7.044628 -23.393137 -14.156517 25.062487 13.042638 
0.152971 0.551671 1.46938 17.527355 -0.421447 24.490896 -16.298098 17.252487 -15.287289 2.903226 -2.911125 -28.539268 -11.353024 -25.604212 12.101524 -2.71447 -27.454582 -10.043215 -8.926759 28.182859 2.889601 -7.036138 30.041939 -14.983062 16.651726 -11.971051 -29.2509 -18.621449 -42.219013 -37.438286 -12.969417 -18.458946 17.415695 21.24865 -4.198315 35.58926 14.466182 16.917643 38.678471 -8.136714 28.414629 27.339731 24.66987 8.233177 12.79066 -32.89986 -11.23539 -20.916153 6.909935 14.516555 16.359959 -3.698445 -4.895802 27.923288 7.722394 -23.315193 -15.572451 -2.126741 15.195992 -27.103271 8.991249 26.240084 10.902502 16.233507 7.538304 -23.04443 -14.083651 24.758352 12.938344 
0.149358 0.552823 1.487368 16.735233 -1.019896 24.03021 -15.998574 17.088093 -15.201258 3.403396 -2.103836 -28.139122 -11.024258 -24.565668 13.396957 -3.539598 -27.06461 -10.402017 -8.854957 27.875149 3.057337 -7.066282 29.632277 -14.92527 16.86577 -12.254543 -30.838707 -15.535213 -38.92593 -34.897163 -12.997046 -18.306185 17.050299 21.074787 -4.034043 35.722176 14.324142 18.553789 37.967003 -7.584624 28.626863 27.729311 24.462221 7.878677 12.752721 -29.899382 -12.09761 -20.951794 6.822372 13.229979 16.806898 -4.783858 -4.676779 27.692064 7.146784 -23.190691 -15.570509 -3.634369 13.995312 -25.586924 12.28123 24.772133 10.86629 16.897638 8.115063 -22.860535 -13.913487 24.433537 12.824327 
0.146579 0.554649 1.505059 15.995685 -1.917127 23.564873 -15.428655 17.073057 -15.397748 3.917603 -1.309837 -27.850176 -10.778083 -23.604828 14.768039 -4.414741 -26.80809 -10.426441 -8.672812 27.638735 3.380475 -7.493064 29.086382 -14.410962 17.672356 -12.693339 -32.286076 -12.064795 -35.056477 -32.326229 -13.102743 -18.179827 16.660244 20.892473 -3.429255 35.959572 13.897173 19.944155 36.895119 -7.671938 28.854671 28.258974 24.208845 7.584513 12.852905 -27.13184 -12.389157 -20.920307 7.311273 12.387115 17.540756 -6.20243 -4.655019 27.483635 6.316776 -23.167223 -15.606248 -6.549473 12.35083 -24.150547 16.409725 23.365988 10.958059 16.813396 8.85824 -22.884216 -13.764308 24.095785 12.828903 
0.147123 0.557485 1.520933 15.458574 -2.903192 22.520988 -14.707828 17.161728 -15.401792 4.35289 -0.653455 -27.420427 -10.76043 -22.733883 15.855393 -4.929427 -26.498943 -10.317567 -8.346931 27.279949 3.735355 -8.184908 28.299974 -13.651279 19.162437 -13.84061 -33.696701 -8.990321 -31.149403 -29.897211 -13.094527 -18.005478 16.228905 20.442904 -2.418837 35.918297 13.356659 20.790897 35.917614 -7.866227 28.898933 28.557106 23.830267 7.397795 12.882357 -24.43832 -12.271542 -20.378319 8.15044 11.924956 17.512871 -7.842428 -5.070594 26.769857 5.355411 -23.07025 -15.562045 -10.928478 10.446917 -22.619085 20.754107 21.832674 10.949774 16.021847 9.788242 -22.602762 -13.558448 23.647429 12.804923 
0.147993 0.560634 1.535442 14.991659 -3.167248 21.607035 -14.149135 17.317844 -15.434718 4.623359 0.136244 -27.285789 -10.850477 -22.032984 16.505312 -4.834709 -26.247343 -10.086345 -7.989798 26.969193 4.189111 -8.819228 27.531544 -12.766839 20.719473 -14.511123 -34.710106 -6.845744 -27.884108 -28.131363 -13.099947 -17.909023 15.852439 20.089169 -1.030713 35.486923 12.731545 21.724823 35.062637 -7.84313 28.868925 28.696066 23.449774 7.382831 12.963068 -21.610016 -11.53288 -19.76438 8.498841 11.508868 17.035933 -9.29459 -5.725714 25.926085 4.360119 -23.036364 -15.534661 -14.983343 9.244736 -21.429356 23.030794 20.862879 10.987773 15.333387 10.266898 -22.328295 -13.494956 23.187323 12.808349 
0.148648 0.563722 1.546295 14.843304 -3.032808 20.684103 -13.531322 17.423311 -15.471856 4.769774 1.007558 -27.25597 -11.125224 -21.441715 16.581034 -4.045627 -25.972507 -9.569515 -7.811921 26.681894 4.692041 -9.414165 26.554043 -11.818677 21.718126 -14.421822 -35.754986 -6.129919 -24.737856 -26.832182 -13.380732 -17.7141 15.449214 19.619499 0.823363 34.609505 11.422764 22.013866 34.819752 -7.577429 28.224943 28.841854 23.199465 7.407637 12.854115 -18.906624 -9.98108 -18.454826 7.801216 11.398156 16.216263 -10.503602 -6.340446 24.87974 3.498798 -22.967354 -15.412493 -18.586712 8.421389 -20.513653 22.644602 20.565924 10.985678 14.765442 10.028231 -21.95002 -13.605435 22.73315 12.71196 
0.149112 0.565461 1.555098 14.912212 -2.77522 19.907795 -13.111002 17.712162 -15.114864 4.516782 1.502885 -27.210085 -11.331484 -21.112349 16.507887 -2.982008 -25.800112 -8.717917 -7.896607 26.457237 5.171142 -10.062566 25.7152 -11.065742 22.573608 -13.90956 -36.708633 -5.756756 -22.67709 -26.079865 -13.525775 -17.571293 15.213528 19.189314 2.717021 33.510696 10.357582 21.588093 34.984825 -7.491608 28.02952 28.845722 23.034925 7.47672 12.756919 -17.360817 -8.312555 -17.777592 7.322777 11.703273 15.789001 -11.948075 -6.693706 23.93018 2.971642 -22.939119 -15.216229 -21.068415 8.010936 -19.776239 20.585512 20.461941 11.459143 14.474971 9.570239 -21.622173 -13.942073 22.362452 12.598747 
0.152855 0.566325 1.558724 15.647538 -2.344319 19.4979 -13.298965 18.004606 -14.585451 4.124513 1.560334 -27.266338 -12.141218 -20.971277 16.173742 -2.409027 -25.84771 -8.194974 -7.840001 26.448086 5.471451 -10.346879 25.368765 -10.841211 24.038454 -13.195489 -36.995182 -5.318575 -22.323702 -26.069994 -13.711948 -17.528135 15.162998 18.989159 3.829952 32.663818 9.852737 20.679499 34.846893 -8.177133 28.690886 29.205412 22.994938 7.506307 12.778339 -18.398672 -6.936152 -17.873882 8.435884 12.401446 15.562065 -12.732536 -7.216103 23.495388 2.161771 -23.166908 -15.20986 -24.694448 7.719314 -19.85248 18.785257 20.796659 11.809511 14.344246 8.612942 -21.728512 -14.296113 22.189392 12.591921 
0.160012 0.567002 1.560979 16.501812 -2.069136 19.144579 -13.887735 18.312498 -13.81176 3.529159 1.66423 -27.381365 -13.161793 -20.91548 15.807682 -1.965255 -25.948286 -7.993825 -7.817211 26.507761 5.629955 -10.026026 25.719858 -11.081599 25.334274 -12.099683 -37.204849 -5.434608 -23.220333 -26.313028 -13.855678 -17.528664 15.217993 18.840715 3.670158 32.294773 9.867047 19.035664 34.858925 -9.210392 29.693649 29.535664 23.039747 7.499359 12.842614 -20.67671 -6.175666 -18.730024 11.17937 12.961472 15.508196 -12.985101 -8.246558 23.025648 1.280214 -23.443991 -15.259664 -28.208071 7.434295 -20.290833 16.522318 21.252987 12.144339 14.192541 7.587783 -21.955536 -14.549647 22.139759 12.600345 
